PathFileType	4	(X/Y/Z)	C:\Users\WrightLab\Desktop\Jo\P1.2Trial21.trc
DataRate	CameraRate	NumFrames	NumMarkers	Units	OrigDataRate	OrigDataStartFrame	OrigNumFrames
100.00	100.00	       8	19	mm	100.00	331	       660
Frame#	Time	Headset_Front			Headset_Back			Headset_Left			Headset_Right			Left_Shoulder			Right_Shoulder			Sternum			C7			Left Elbow			Right Elbow			Left Wrist			Right Wrist			Left ASIS			Right ASIS			S2			Left Knee			Right Knee			Left Ankle			Right Ankle			
		X1	Y1	Z1	X2	Y2	Z2	X3	Y3	Z3	X4	Y4	Z4	X5	Y5	Z5	X6	Y6	Z6	X7	Y7	Z7	X8	Y8	Z8	X9	Y9	Z9	X10	Y10	Z10	X11	Y11	Z11	X12	Y12	Z12	X13	Y13	Z13	X14	Y14	Z14	X15	Y15	Z15	X16	Y16	Z16	X17	Y17	Z17	X18	Y18	Z18	X19	Y19	Z19	

331	3.300	-20.04763	1366.44580	854.90186	-149.63019	1496.07385	610.72913	4.01613	1437.39661	658.13373	-160.84268	1401.77930	815.97601	48.26383	1220.73352	510.62445	-265.62704	1225.11499	798.87543	-22.53930	1175.10620	753.10974	-185.71835	1275.03381	570.16711	38.89182	937.59808	424.34677	-305.75278	978.43793	869.93103	153.28308	729.10095	430.94046	-177.94026	784.07092	1026.20300	83.84105	859.59949	687.97076	-143.69804	848.23499	845.33490	-179.17465	871.14630	528.37695	138.83427	484.72693	802.97247	-220.69299	405.58353	755.10626	236.09871	167.53731	817.14075	-341.07596	102.70882	554.45776	
332	3.310	-13.34409	1366.48254	864.83826	-140.79686	1496.93298	618.95081	12.49427	1438.19373	668.33014	-154.15262	1400.87476	823.15729	58.25266	1220.71594	520.68872	-258.79956	1225.34412	804.22546	-13.65689	1175.36792	762.05627	-175.96878	1274.81018	577.72937	49.93565	937.73932	434.71423	-300.21698	977.30566	874.53809	163.78603	728.80353	442.58813	-173.94528	782.06189	1030.34680	93.31314	859.96246	698.96021	-135.05397	848.62592	854.46497	-168.92967	870.90466	538.33893	146.73375	482.17041	812.09979	-211.37329	405.66000	763.73285	242.26907	165.29062	825.45001	-337.29260	107.91643	564.07147	
333	3.320	-8.09697	1367.00073	874.04388	-131.15935	1497.03198	627.82611	20.57166	1439.22595	677.36761	-147.98418	1401.15295	830.99103	68.95348	1221.14929	530.33673	-251.05301	1225.25488	810.64819	-6.21579	1176.41895	771.40082	-165.88947	1275.14514	584.66858	61.37314	937.62543	444.73792	-294.39465	977.45441	878.75085	175.08742	728.68787	454.96878	-171.28529	780.00745	1034.89441	103.34948	860.98669	710.19464	-125.75875	849.84308	865.08551	-157.17241	870.36224	549.03918	154.22533	480.79562	821.13934	-201.15866	405.33655	772.49243	247.96846	162.37975	833.20630	-332.76715	112.06668	571.46368	
334	3.330	-1.95367	1367.89856	883.16962	-122.22433	1498.03015	635.94214	29.11662	1440.93701	687.75995	-141.77238	1401.84204	838.61761	79.43369	1221.54077	540.71265	-244.01556	1226.52893	817.48834	1.84891	1178.07947	780.90338	-156.02858	1275.49878	592.46442	73.02901	938.02570	455.95441	-288.12982	977.21069	882.69025	186.70879	729.40283	466.85529	-168.65874	777.28528	1038.09082	112.95704	862.22491	721.77411	-116.60773	851.28674	875.01611	-146.26367	870.01917	558.55994	161.68355	479.68204	827.95990	-191.27681	405.12024	782.62195	253.65688	158.56798	840.59155	-328.85660	118.63087	588.16791	
335	3.340	4.15081	1368.93481	892.51862	-112.79073	1498.97839	643.53540	37.32150	1442.18347	697.66095	-135.02534	1402.51929	846.15540	90.31109	1222.48523	550.51263	-237.12711	1227.67932	823.17493	9.49385	1179.79602	790.55316	-145.85342	1276.38171	599.66626	84.68651	938.58179	466.38303	-282.23169	977.45142	886.21002	198.40965	729.81018	479.76141	-166.97261	775.28064	1041.19775	122.14735	863.73346	733.92767	-107.77724	852.77686	882.75891	-135.36592	870.25024	569.52356	170.70958	481.82852	835.79950	-181.83243	405.42770	793.61279	259.30746	154.88315	846.66248	-322.44177	124.31140	596.77435	
336	3.350	10.93703	1371.57922	904.69922	-103.70830	1500.37695	651.53516	45.90762	1443.87512	708.45197	-129.34593	1403.34399	853.35828	100.60754	1223.94763	561.15558	-229.70738	1228.67322	829.01544	17.18287	1181.17407	799.58691	-135.96869	1277.65417	606.95221	95.54285	939.23151	478.28647	-276.57010	977.97174	889.39032	210.64035	730.95496	493.75858	-166.04926	772.73798	1043.98889	131.41656	866.04504	745.31537	-100.15002	853.58356	891.37445	-125.07762	870.99707	579.56152	180.61345	483.55206	843.73718	-173.91286	407.47717	805.98511	263.90100	151.21565	851.53522	-315.49097	130.09927	605.03638	
337	3.360	15.15991	1371.89404	911.85345	-94.52679	1501.78503	659.39154	54.25738	1445.62292	717.91431	-122.50475	1404.29688	860.80902	110.95094	1225.36572	572.17969	-223.16414	1230.85583	836.03882	24.89569	1182.98621	808.83038	-126.77110	1279.44263	614.44574	107.40820	940.45630	489.71771	-271.47452	978.89722	892.96204	222.30579	732.89905	506.46075	-165.83792	770.47845	1046.27356	140.32732	868.72314	756.02167	-91.99577	856.05634	901.30090	-114.63161	871.63861	589.36664	190.29951	487.35062	852.14178	-162.97385	407.60623	817.39069	267.12305	149.60269	854.30475	-307.38214	135.75568	613.51508	
338	3.370	20.92626	1374.08105	922.06445	-85.59057	1503.50854	667.57025	62.29394	1447.34924	727.92212	-116.44946	1405.82056	868.00641	120.99731	1226.92505	583.02667	-216.43771	1232.80847	843.11816	32.05404	1184.86243	818.39288	-117.44395	1281.03137	622.23181	119.24548	942.35846	499.96817	-265.93695	980.14856	896.28284	234.64011	734.29596	520.63922	-165.65431	767.82092	1047.18750	149.62465	871.64429	766.34515	-83.92955	857.73193	909.34381	-105.56706	873.44122	599.34973	199.84271	491.00525	861.57129	-153.96468	408.45261	820.70184	269.67990	147.65092	854.80615	-298.81363	142.03394	623.01550	
